<svg viewBox="0 0 800 600" xmlns="http://www.w3.org/2000/svg" width="100%" height="100%" preserveAspectRatio="xMidYMid slice">
  <defs>
    <!-- Define colors -->
    <linearGradient id="primaryGrad" x1="0%" y1="0%" x2="100%" y2="100%">
      <stop offset="0%" style="stop-color:oklch(0.701 0.321 328.1);stop-opacity:1" />
      <stop offset="100%" style="stop-color:oklch(0.701 0.321 328.1);stop-opacity:0.2" />
    </linearGradient>
    
    <linearGradient id="secondaryGrad" x1="0%" y1="0%" x2="100%" y2="100%">
      <stop offset="0%" style="stop-color:oklch(0.796 0.295 142.5);stop-opacity:1" />
      <stop offset="100%" style="stop-color:oklch(0.796 0.295 142.5);stop-opacity:0.3" />
    </linearGradient>
    
    <linearGradient id="fadeGrad" x1="0%" y1="0%" x2="100%" y2="0%">
      <stop offset="0%" style="stop-color:oklch(0.796 0.295 142.5);stop-opacity:0.8" />
      <stop offset="50%" style="stop-color:oklch(0.701 0.321 328.1);stop-opacity:0.4" />
      <stop offset="100%" style="stop-color:oklch(0.796 0.295 142.5);stop-opacity:0.1" />
    </linearGradient>
    
    <!-- Glitch filter -->
    <filter id="pixelate">
      <feTurbulence baseFrequency="0.9" numOctaves="4" result="noise"/>
      <feDisplacementMap in="SourceGraphic" in2="noise" scale="2"/>
    </filter>
    
    <!-- Soft glow -->
    <filter id="softGlow">
      <feGaussianBlur stdDeviation="2" result="coloredBlur"/>
      <feMerge> 
        <feMergeNode in="coloredBlur"/>
        <feMergeNode in="SourceGraphic"/>
      </feMerge>
    </filter>
  </defs>
  
  <!-- Dark background -->
  <rect width="800" height="600" fill="#0a0a0a"/>
  
  <!-- Large angular fragments -->
  <polygon points="0,0 300,50 250,300 0,200" fill="oklch(0.701 0.321 328.1)" opacity="0.3"/>
  <polygon points="500,0 800,0 800,250 600,200" fill="oklch(0.701 0.321 328.1)" opacity="0.4"/>
  <polygon points="0,400 200,350 300,600 0,600" fill="oklch(0.701 0.321 328.1)" opacity="0.25"/>
  
  <!-- Layered geometric shards -->
  <g opacity="0.7">
    <polygon points="150,100 280,80 320,180 200,220" fill="oklch(0.701 0.321 328.1)" opacity="0.8"/>
    <polygon points="180,120 300,100 330,190 220,240" fill="oklch(0.701 0.321 328.1)" opacity="0.6"/>
    <polygon points="200,140 320,120 350,200 240,260" fill="oklch(0.701 0.321 328.1)" opacity="0.4"/>
  </g>
  
  <!-- Fragmented data blocks -->
  <g transform="translate(400, 150)">
    <rect x="0" y="0" width="120" height="8" fill="oklch(0.701 0.321 328.1)" opacity="0.9"/>
    <rect x="0" y="15" width="80" height="8" fill="oklch(0.701 0.321 328.1)" opacity="0.8"/>
    <rect x="0" y="30" width="150" height="8" fill="oklch(0.796 0.295 142.5)" opacity="0.7"/>
    <rect x="0" y="45" width="60" height="8" fill="oklch(0.701 0.321 328.1)" opacity="0.6"/>
    <rect x="0" y="60" width="100" height="8" fill="oklch(0.701 0.321 328.1)" opacity="0.5"/>
  </g>
  
  <!-- Vertical digital strips -->
  <g opacity="0.6">
    <rect x="100" y="0" width="4" height="600" fill="oklch(0.701 0.321 328.1)" opacity="0.3"/>
    <rect x="120" y="0" width="2" height="600" fill="oklch(0.701 0.321 328.1)" opacity="0.5"/>
    <rect x="140" y="0" width="6" height="600" fill="oklch(0.701 0.321 328.1)" opacity="0.4"/>
    <rect x="680" y="0" width="3" height="600" fill="oklch(0.701 0.321 328.1)" opacity="0.4"/>
    <rect x="700" y="0" width="5" height="600" fill="oklch(0.701 0.321 328.1)" opacity="0.3"/>
  </g>
  
  <!-- Complex angular composition -->
  <g transform="translate(450, 300) rotate(15)">
    <polygon points="0,0 100,20 80,80 -20,60" fill="oklch(0.701 0.321 328.1)" opacity="0.7" filter="url(#softGlow)"/>
    <polygon points="60,10 160,30 140,90 40,70" fill="oklch(0.796 0.295 142.5)" opacity="0.5"/>
    <polygon points="120,20 220,40 200,100 100,80" fill="oklch(0.701 0.321 328.1)" opacity="0.3"/>
  </g>
  
  <!-- Pixelated fragments -->
  <g filter="url(#pixelate)" opacity="0.8">
    <rect x="200" y="400" width="40" height="40" fill="oklch(0.796 0.295 142.5)"/>
    <rect x="550" y="450" width="30" height="30" fill="oklch(0.701 0.321 328.1)"/>
    <rect x="350" y="500" width="35" height="35" fill="oklch(0.796 0.295 142.5)"/>
  </g>
  
  <!-- Diagonal slash patterns -->
  <g opacity="0.4">
    <polygon points="300,200 320,180 400,260 380,280" fill="oklch(0.701 0.321 328.1)"/>
    <polygon points="420,220 440,200 520,280 500,300" fill="oklch(0.796 0.295 142.5)"/>
    <polygon points="540,240 560,220 640,300 620,320" fill="oklch(0.701 0.321 328.1)"/>
  </g>
  
  <!-- Interface-like elements -->
  <g transform="translate(50, 50)" opacity="0.7">
    <rect x="0" y="0" width="200" height="2" fill="oklch(0.796 0.295 142.5)"/>
    <rect x="0" y="10" width="150" height="2" fill="oklch(0.701 0.321 328.1)"/>
    <rect x="0" y="20" width="180" height="2" fill="oklch(0.796 0.295 142.5)"/>
    <rect x="0" y="30" width="120" height="2" fill="oklch(0.701 0.321 328.1)"/>
    <rect x="0" y="40" width="160" height="2" fill="oklch(0.796 0.295 142.5)"/>
  </g>
  
  <!-- Scattered geometric debris -->
  <g opacity="0.5">
    <polygon points="600,100 620,90 630,110 610,120" fill="oklch(0.701 0.321 328.1)"/>
    <polygon points="150,350 170,340 180,360 160,370" fill="oklch(0.796 0.295 142.5)"/>
    <polygon points="750,200 770,190 780,210 760,220" fill="oklch(0.701 0.321 328.1)"/>
    <polygon points="80,500 100,490 110,510 90,520" fill="oklch(0.796 0.295 142.5)"/>
  </g>
  
  <!-- Overlapping translucent layers -->
  <g opacity="0.3">
    <polygon points="250,0 550,100 500,400 200,300" fill="oklch(0.701 0.321 328.1)"/>
    <polygon points="300,50 600,150 550,450 250,350" fill="oklch(0.796 0.295 142.5)"/>
  </g>
  
  <!-- Digital noise pattern -->
  <g opacity="0.6">
    <rect x="480" y="80" width="3" height="3" fill="oklch(0.796 0.295 142.5)"/>
    <rect x="490" y="90" width="2" height="2" fill="oklch(0.701 0.321 328.1)"/>
    <rect x="500" y="100" width="4" height="4" fill="oklch(0.796 0.295 142.5)"/>
    <rect x="510" y="110" width="3" height="3" fill="oklch(0.701 0.321 328.1)"/>
    <rect x="520" y="120" width="2" height="2" fill="oklch(0.796 0.295 142.5)"/>
    <rect x="320" y="250" width="3" height="3" fill="oklch(0.701 0.321 328.1)"/>
    <rect x="330" y="260" width="4" height="4" fill="oklch(0.796 0.295 142.5)"/>
    <rect x="340" y="270" width="2" height="2" fill="oklch(0.701 0.321 328.1)"/>
  </g>
  
  <!-- Final overlay fragments -->
  <polygon points="600,350 750,380 720,500 570,470" fill="oklch(0.701 0.321 328.1)" opacity="0.2"/>
  <polygon points="50,250 200,280 170,400 20,370" fill="oklch(0.796 0.295 142.5)" opacity="0.15"/>
</svg>
